<svg id="Layer" height="512" viewBox="0 0 24 24" width="512" xmlns="http://www.w3.org/2000/svg">
	<path id="document-list" d="m19.5 9.25h-1.75v-3.25a3.383 3.383 0 0 0 -3.75-3.75h-8a3.383 3.383 0 0 0 -3.75 3.75v12a3.383 3.383 0 0 0 3.75 3.75h13a2.752 2.752 0 0 0 2.75-2.75v-7.5a2.253 2.253 0 0 0 -2.25-2.25zm-13.5 11c-1.577 0-2.25-.673-2.25-2.25v-12c0-1.577.673-2.25 2.25-2.25h8c1.577 0 2.25.673 2.25 2.25v13a2.723 2.723 0 0 0 .3 1.25zm14.25-1.25a1.25 1.25 0 0 1 -2.5 0v-8.25h1.75a.751.751 0 0 1 .75.75zm-6-11a.75.75 0 0 1 -.75.75h-4.5a.75.75 0 0 1 0-1.5h4.5a.75.75 0 0 1 .75.75zm0 4a.75.75 0 0 1 -.75.75h-4.5a.75.75 0 0 1 0-1.5h4.5a.75.75 0 0 1 .75.75zm0 4a.75.75 0 0 1 -.75.75h-4.5a.75.75 0 0 1 0-1.5h4.5a.75.75 0 0 1 .75.75zm-7-8a.75.75 0 1 1 -.75-.75.75.75 0 0 1 .75.75zm0 4a.75.75 0 1 1 -.75-.75.75.75 0 0 1 .75.75zm0 4a.75.75 0 1 1 -.75-.75.75.75 0 0 1 .75.75z" />
</svg>
