<svg id="Capa_1" enable-background="new 0 0 512 512" height="512" viewBox="0 0 512 512" width="512" xmlns="http://www.w3.org/2000/svg"><g><path d="m467 280h-16v-25c0-19.299-15.701-35-35-35h-40c-19.299 0-35 15.701-35 35v6c-19.823-16.355-44.042-26.866-69.735-30.007 23.745-21.082 38.735-51.817 38.735-85.993 0-63.411-51.589-115-115-115s-115 51.589-115 115c0 34.171 14.986 64.902 38.725 85.984-66.793 8.063-118.725 65.085-118.725 134.016v102c0 8.284 6.716 15 15 15h452c24.813 0 45-20.187 45-45v-112c0-24.813-20.187-45-45-45zm-96-25c0-2.757 2.243-5 5-5h40c2.757 0 5 2.243 5 5v25h-50zm-261-110c0-46.869 38.131-85 85-85s85 38.131 85 85-38.131 85-85 85-85-38.131-85-85zm102.293 115-5 30h-24.586l-5-30zm-182.293 192v-87c0-57.897 47.103-105 105-105h12.293l7.54 45.243-14.701 109.766c-.543 4.059.596 8.164 3.154 11.362l20.505 25.629zm165-9.012-24.282-30.352 12.407-92.636h23.75l12.407 92.636zm87.58 9.012h-56.371l20.504-25.629c2.559-3.198 3.698-7.303 3.154-11.362l-14.701-109.766 7.54-45.243h12.294c22.694 0 44.561 7.43 62.448 20.646-21.229 3.604-37.448 22.115-37.448 44.354v112c0 5.258.915 10.305 2.58 15zm199.42-15c0 8.271-6.729 15-15 15h-142c-8.271 0-15-6.729-15-15v-57h172zm0-87h-172v-25c0-8.271 6.729-15 15-15h142c8.271 0 15 6.729 15 15z"/></g></svg>