<svg id="Capa_1" enable-background="new 0 0 512 512" height="512" viewBox="0 0 512 512" width="512" xmlns="http://www.w3.org/2000/svg"><g><path d="m411.333 278.864v-45l-100.666 45v-45l-100.667 45v-66.864h-60v-60h-30v-15c0-24.813-20.187-45-45-45h-30c-8.271 0-15-6.729-15-15s6.729-15 15-15h120c24.813 0 45-20.187 45-45v-17h-30v17c0 8.271-6.729 15-15 15h-120c-24.813 0-45 20.187-45 45s20.187 45 45 45h30c8.271 0 15 6.729 15 15v15h-30v60h-60v300h512v-278.136zm-321.333-96.864h30v30h-30zm90 300h-150v-240h150zm242 0h-31v-45h31zm-61 0h-30v-45h30zm-60 0h-31v-45h31zm181 0h-30v-75h-212v75h-30v-170.275l70.667-31.589v45l100.666-45v45l100.667-45z"/><path d="m60 392h30v30h-30z"/><path d="m120 392h30v30h-30z"/><path d="m60 332h30v30h-30z"/><path d="m120 332h30v30h-30z"/><path d="m60 272h30v30h-30z"/><path d="m120 272h30v30h-30z"/><path d="m240 347h30v30h-30z"/><path d="m300.667 347h30v30h-30z"/><path d="m361.333 347h30v30h-30z"/><path d="m422 347h30v30h-30z"/></g></svg>